<?xml version="1.0" standalone="no"?>
<!DOCTYPE svg PUBLIC "-//W3C//DTD SVG 20010904//EN"
 "http://www.w3.org/TR/2001/REC-SVG-20010904/DTD/svg10.dtd">
<svg version="1.0" xmlns="http://www.w3.org/2000/svg"
 width="700.000000pt" height="700.000000pt" viewBox="0 0 700.000000 700.000000"
 preserveAspectRatio="xMidYMid meet">
<metadata>
Created by potrace 1.14, written by Peter Selinger 2001-2017
</metadata>
<g transform="translate(0.000000,700.000000) scale(0.100000,-0.100000)"
fill="#000000" stroke="none">
<path d="M972 6824 c-34 -7 -76 -20 -92 -28 -17 -9 -43 -23 -59 -31 -35 -18
-139 -122 -146 -145 -3 -9 -26 -22 -53 -29 -281 -71 -426 -377 -298 -628 46
-92 64 -105 292 -218 119 -59 212 -110 208 -114 -5 -4 -135 -63 -289 -130
-326 -143 -347 -153 -337 -162 6 -6 139 -81 367 -207 44 -24 82 -46 84 -48 3
-2 -17 -46 -43 -97 -49 -95 -67 -170 -59 -242 15 -148 122 -281 258 -325 22
-7 44 -16 50 -21 6 -6 10 -198 11 -502 1 -270 4 -508 7 -527 3 -19 8 -57 12
-85 9 -73 60 -259 95 -353 83 -215 222 -433 389 -607 49 -51 320 -312 431
-415 19 -18 114 -109 212 -202 l176 -169 0 -412 c-1 -307 -4 -419 -14 -442
-20 -48 -53 -84 -97 -107 -41 -21 -55 -22 -392 -24 -192 -1 -353 -2 -356 -3
-4 -1 -6 -88 -5 -194 l1 -192 692 -1 c672 -1 693 0 775 20 164 42 310 153 387
296 71 132 71 132 71 800 l0 596 73 38 c39 21 104 55 142 76 39 20 115 61 170
90 320 169 409 219 585 335 226 148 296 214 358 332 22 43 43 94 48 113 4 19
9 42 12 50 15 58 9 195 -14 284 -7 28 -6 28 27 21 80 -17 247 -111 341 -192
221 -191 343 -386 406 -648 23 -98 23 -343 -1 -446 -10 -41 -60 -203 -112
-359 -52 -156 -93 -286 -91 -288 7 -6 298 195 394 272 301 240 401 390 501
753 6 23 14 61 17 85 3 24 7 49 9 56 13 37 20 180 19 367 -1 189 -4 221 -27
325 -44 188 -100 319 -206 476 -89 132 -201 243 -386 382 -117 88 -449 242
-522 242 -25 0 -3 18 32 26 47 10 244 12 326 2 63 -8 116 -17 233 -43 10 -2
54 -16 98 -30 420 -136 717 -449 787 -830 17 -93 25 -230 24 -399 l-1 -160 39
62 c56 88 131 241 172 352 95 255 128 495 104 745 -6 65 -9 85 -21 148 -56
287 -232 604 -455 816 -103 98 -293 241 -320 241 -5 0 -11 4 -13 8 -1 5 -55
34 -118 64 -624 303 -1358 225 -1901 -201 -82 -64 -254 -247 -321 -342 -108
-151 -230 -422 -252 -559 -6 -34 -4 -37 56 -80 89 -65 244 -222 311 -317 101
-142 167 -283 211 -448 28 -105 35 -151 41 -267 l4 -85 -117 -56 c-192 -92
-362 -152 -492 -173 -161 -27 -209 -31 -349 -28 -86 1 -174 5 -196 9 -169 26
-340 79 -499 153 -56 25 -103 49 -106 52 -3 3 -21 14 -40 24 -238 129 -558
422 -744 683 l-37 52 23 15 c47 30 321 186 327 186 3 0 21 -22 38 -48 70 -102
248 -291 356 -377 34 -27 64 -52 67 -56 12 -14 163 -111 226 -144 142 -76 314
-134 454 -152 70 -9 249 -8 320 1 70 9 154 30 253 62 l78 26 -6 35 c-7 48 -58
168 -101 239 -54 89 -110 159 -188 231 -124 114 -238 180 -426 243 -294 98
-482 289 -565 575 -25 88 -63 225 -70 255 -2 8 -18 65 -34 125 -75 266 -164
592 -168 615 -3 14 -25 67 -49 118 -34 71 -60 108 -112 161 -37 37 -75 72 -85
78 -17 9 -9 27 82 212 54 111 100 205 101 209 2 4 5 13 8 21 10 26 -15 157
-40 212 -52 114 -152 206 -272 251 -60 23 -199 32 -268 17 -41 -9 -52 -7 -95
14 -98 50 -218 65 -331 41z m198 -1301 c72 -47 104 -126 85 -209 -13 -59 -36
-92 -84 -125 -28 -20 -47 -24 -105 -24 -63 0 -76 3 -113 30 -137 97 -98 309
64 350 52 13 111 5 153 -22z m1667 -4330 c0 -258 -4 -483 -9 -501 -12 -44 -63
-99 -107 -118 -44 -19 -151 -26 -151 -10 0 6 7 35 15 65 8 30 14 57 13 60 0 3
0 195 1 426 l1 420 48 23 c26 12 79 40 117 61 39 22 71 40 71 40 1 1 2 -209 1
-466z"/>
<path d="M1062 5403 c-78 -38 -77 -162 2 -195 96 -39 185 55 140 148 -26 54
-87 74 -142 47z"/>
<path d="M4129 2150 c-15 -4 -25 -14 -27 -27 -3 -19 11 -29 88 -68 112 -56
181 -103 240 -164 56 -57 135 -169 127 -178 -4 -3 -7 -1 -7 4 0 16 -80 73
-102 73 -10 0 -28 -10 -39 -21 -20 -20 -21 -28 -15 -138 3 -64 8 -127 10 -141
3 -14 8 -47 11 -75 3 -27 8 -62 11 -77 7 -41 -8 -34 -62 30 -68 79 -63 74
-124 137 -73 76 -149 113 -233 113 -34 -1 -71 -4 -82 -8 -43 -17 -128 -40
-146 -40 -23 0 -70 97 -98 205 -19 71 -39 105 -63 105 -12 0 -56 -73 -78 -131
-30 -75 -35 -112 -34 -234 2 -139 31 -242 114 -410 90 -182 216 -362 375 -532
64 -70 87 -84 100 -63 3 5 -14 92 -39 192 -52 210 -56 231 -61 315 -7 119 7
124 94 34 297 -308 749 -754 782 -772 27 -14 37 18 33 106 -5 132 -16 307 -19
325 -2 9 -6 53 -10 96 -4 43 -9 87 -10 96 -2 9 -7 48 -10 85 l-7 68 44 -69
c49 -78 71 -97 90 -78 20 20 16 413 -5 516 -55 264 -148 425 -327 570 -63 51
-233 125 -325 142 -63 12 -172 19 -196 14z"/>
</g>
</svg>
