<svg xmlns="http://www.w3.org/2000/svg" version="1.1" xmlns:xlink="http://www.w3.org/1999/xlink" width="512" height="512" x="0" y="0" viewBox="0 0 512 512" style="enable-background:new 0 0 512 512" xml:space="preserve" class=""><g><path d="M476.359 154.227a9.846 9.846 0 0 0-9.273-6.535h-.041a9.848 9.848 0 0 0-9.258 6.61c-.128.369-13.007 37.234-29.951 73.376-30.998 66.118-45.865 67.501-47.47 67.501-2.274-.078-7.381-4.816-12.089-22.078C338.96 165.597 279.975 7.969 279.383 6.39a9.844 9.844 0 0 0-16.695-2.951c-42.27 49.316-93.613 131.967-120.524 176.962v-42.555a9.846 9.846 0 0 0-16.809-6.963C35.668 220.572-1.323 301.984 15.407 372.859c23.016 97.496 138.434 137.001 143.335 138.635a9.85 9.85 0 0 0 11.621-4.383 9.848 9.848 0 0 0-1.915-12.272c-.458-.412-45.911-41.761-56.102-83.63v-.001c-5.302-21.778-6.345-43.271-5.526-60.267 5.493 26.622 13.393 39.006 25.588 41.369 17.984 3.489 36.315-16.15 67.594-72.453 13-23.398 20.01-32.227 23.465-35.553 2.274 5.697 4.626 17.751 6.433 27.006 2.776 14.22 5.922 30.336 11.231 46.264 16.782 50.347 65.94 56.577 98.467 60.699 10.042 1.273 19.529 2.476 25.913 4.605 1.236.411 2.224 1.084 3.03 3.026 5.413 13.06-7.6 49.875-18.57 71.847a9.847 9.847 0 0 0 11.921 13.741c53.386-17.796 91.972-50.478 114.685-97.139 52.854-108.575 1.974-253.989-.218-260.126zm-17.486 251.509c-17.1 35.128-44.421 61.449-81.383 78.476 7.98-20.314 16.331-48.734 9.245-65.84-2.885-6.965-8.071-11.867-14.995-14.175-8.22-2.739-18.637-4.06-29.666-5.458-32.528-4.123-69.395-8.795-82.261-47.392-4.908-14.72-7.924-30.174-10.585-43.809-4.97-25.459-8.253-42.279-22.022-44.46a16.5 16.5 0 0 0-2.582-.208c-11.513 0-22.56 12.727-41.836 47.425-34.458 62.024-45.492 62.785-46.616 62.687-.324-.111-8.02-3.237-13.775-49.281-1.475-11.799-3.954-20.222-11.262-22.983-4.101-1.547-8.607-.653-12.05 2.394C87 313.801 81.812 369.033 93.212 415.866c5.023 20.633 16.923 40.582 28.979 56.726a266.617 266.617 0 0 1-15.457-9.707C79.64 444.52 45.125 413.192 34.55 368.24c-13.965-59.359 15.606-128.604 87.92-206.051v54.426a9.848 9.848 0 0 0 7.318 9.517 9.856 9.856 0 0 0 11.077-4.632c.734-1.286 69.727-121.677 125.996-192.188 15.702 42.794 58.81 162.415 82.417 248.97 2.419 8.873 9.782 35.871 30.412 36.578 12.284.426 32.465-7.307 66.034-78.949 7.96-16.988 14.953-33.868 20.244-47.317 3.781 14.722 8.082 34.381 11.043 56.704 5.86 44.155 7.469 107.831-18.138 160.438z" fill="#000000" opacity="1" data-original="#000000" class=""></path></g></svg>