<?xml version="1.0" encoding="UTF-8" standalone="no"?>
<!DOCTYPE svg PUBLIC "-//W3C//DTD SVG 1.1//EN" "http://www.w3.org/Graphics/SVG/1.1/DTD/svg11.dtd">
<svg width="100%" height="100%" viewBox="0 0 512 512" version="1.1" xmlns="http://www.w3.org/2000/svg" xmlns:xlink="http://www.w3.org/1999/xlink" xml:space="preserve" xmlns:serif="http://www.serif.com/" style="fill-rule:evenodd;clip-rule:evenodd;stroke-linejoin:round;stroke-miterlimit:2;">
    <path d="M498.551,233.37C498.551,274.647 474.615,307.075 474.615,307.075C474.615,307.075 476.617,281.007 472.612,263.202C462.944,220.227 419.785,199.429 378.143,199.016C372.542,198.949 367.63,199.832 363.344,201.2C378.022,204.839 395.548,212.369 413.406,227.305C434.643,245.069 447.21,270.027 448.786,297.582C450.331,324.556 446.537,353.271 431.863,375.448C418.932,394.991 379.347,418.806 379.347,418.806L393.186,377.49C403.409,340.229 388.414,309.124 363.102,289.266C354.384,282.426 346.221,278.12 337.398,276.021C339.881,282.915 340.597,290.274 339.486,297.485C337.546,310.003 330.151,321.284 319.195,328.441L293.472,345.244L292.855,345.572L237.727,374.747L237.727,457.196C237.727,480.924 217.532,500.163 192.62,500.163L96.768,500.163L96.768,471.44L145.022,471.44C153.279,471.44 159.974,465.061 159.974,457.192L159.974,399.308L104.555,346.511C78.315,321.516 63.264,287.556 63.264,253.345L63.264,190.057C55.489,188.511 48.688,184.066 44.331,177.502C38.574,168.817 38.437,157.771 43.44,148.673L48.004,140.373L13.449,121.055L61.357,99.84L29.121,83.951L27.056,81.339C22.512,75.595 20.11,68.751 20.11,61.541C20.11,45.376 32.402,31.896 48.552,29.138C54.422,18.811 65.909,11.837 78.961,11.837C86.109,11.829 93.087,13.939 98.922,17.872C102.49,16.706 106.271,16.095 110.162,16.095C129.186,16.084 144.745,31.516 144.745,49.637L144.745,52.174L129.499,83.555C138.632,89.803 145.512,98.991 148.496,109.922L168.693,183.891C174.184,204.005 190.152,219.437 210.15,225.45C219.557,228.278 228.462,232.514 236.045,238.527C254.018,252.781 260.584,269.696 262.969,279.777C231.65,292.411 201.108,289.005 172.056,269.613C146.713,252.691 131.799,229.607 131.655,229.377L105.943,244.168C106.655,245.296 123.754,272.013 153.948,292.459C177.035,308.088 201.416,315.931 226.264,315.931C246.144,315.931 266.322,310.908 286.351,300.838L294.532,296.725L294.357,287.914C294.317,286.044 293.676,269.073 282.81,249.029C276.548,237.48 266.016,223.516 248.507,211.542C253.297,188.801 264.909,167.851 282.373,150.978C305.789,128.352 337.034,115.629 370.357,115.152C371.002,115.142 371.647,115.138 372.289,115.138C440.939,115.138 498.551,167.788 498.551,233.37ZM207.573,457.196L207.573,390.704L190.129,399.932L190.129,457.196C190.131,462.048 189.266,466.865 187.571,471.44L192.62,471.44C200.865,471.44 207.573,465.05 207.573,457.196ZM77.933,105.784C69.941,105.784 63.452,112.273 63.452,120.266C63.452,128.259 69.941,134.748 77.933,134.748C85.926,134.748 92.415,128.259 92.415,120.266C92.415,112.273 85.926,105.784 77.933,105.784Z" style="fill:rgb(0,0,145);"/>
    <g transform="matrix(-0.18497,0.101279,-0.150875,-0.245838,407.867,464.296)">
        <path d="M476.359,154.227C474.963,150.317 471.237,147.692 467.086,147.692L467.045,147.692C462.88,147.71 459.156,150.368 457.787,154.302C457.659,154.671 444.78,191.536 427.836,227.678C396.838,293.796 381.971,295.179 380.366,295.179C378.092,295.101 372.985,290.363 368.277,273.101C338.96,165.597 279.975,7.969 279.383,6.39C277.947,2.555 274.26,-0.001 270.164,-0.001C267.291,-0.001 264.557,1.257 262.688,3.439C220.418,52.755 169.075,135.406 142.164,180.401L142.164,137.846C142.164,137.845 142.164,137.845 142.164,137.844C142.164,132.443 137.719,127.998 132.318,127.998C129.707,127.998 127.201,129.037 125.355,130.883C35.668,220.572 -1.323,301.984 15.407,372.859C38.423,470.355 153.841,509.86 158.742,511.494C163.148,512.961 168.023,511.123 170.363,507.111C172.701,503.098 171.898,497.949 168.448,494.839C167.99,494.427 122.537,453.078 112.346,411.209L112.346,411.208C107.044,389.43 106.001,367.937 106.82,350.941C112.313,377.563 120.213,389.947 132.408,392.31C150.392,395.799 168.723,376.16 200.002,319.857C213.002,296.459 220.012,287.63 223.467,284.304C225.741,290.001 228.093,302.055 229.9,311.31C232.676,325.53 235.822,341.646 241.131,357.574C257.913,407.921 307.071,414.151 339.598,418.273C349.64,419.546 359.127,420.749 365.511,422.878C366.747,423.289 367.735,423.962 368.541,425.904C373.954,438.964 360.941,475.779 349.971,497.751C349.289,499.117 348.934,500.623 348.934,502.149C348.934,507.551 353.379,511.996 358.781,511.996C359.838,511.996 360.889,511.826 361.892,511.492C415.278,493.696 453.864,461.014 476.577,414.353C529.431,305.778 478.551,160.364 476.359,154.227Z" style="fill:rgb(225,0,15);fill-rule:nonzero;"/>
    </g>
    <g transform="matrix(4.7863,0,0,4.90589,-352.144,-482.64)">
        <circle cx="90.54" cy="123.637" r="1.651"/>
    </g>
</svg>
