<svg xmlns="http://www.w3.org/2000/svg" version="1.1" xmlns:xlink="http://www.w3.org/1999/xlink" width="512" height="512" x="0" y="0" viewBox="0 0 512 512" style="enable-background:new 0 0 512 512" xml:space="preserve" class=""><g><path d="M484.5 232.273c0-68.761-57.54-123.964-126.105-123.964-.641 0-1.286.004-1.93.015-33.281.5-64.488 13.84-87.875 37.563-17.442 17.691-29.04 39.656-33.824 63.5 17.488 12.554 28.007 27.195 34.261 39.304 10.852 21.016 11.493 38.809 11.532 40.77l.175 9.238-8.171 4.313c-20.004 10.558-40.157 15.824-60.012 15.824-24.817 0-49.168-8.223-72.227-24.61-30.156-21.437-47.234-49.449-47.945-50.632l25.68-15.508c.144.242 15.039 24.445 40.351 42.187 29.016 20.332 59.52 23.903 90.8 10.657-2.382-10.57-8.94-28.305-26.89-43.25-7.574-6.305-16.468-10.746-25.863-13.711-19.973-6.305-35.922-22.485-41.406-43.574l-20.172-77.555c-2.98-11.461-9.852-21.094-18.973-27.645l15.227-32.902v-2.66c0-19-15.54-35.18-34.54-35.168-3.886 0-7.663.64-11.226 1.863A34.447 34.447 0 0 0 65.43 0C52.395 0 40.922 7.312 35.059 18.14 18.929 21.032 6.652 35.165 6.652 52.114c0 7.559 2.399 14.735 6.938 20.758l2.062 2.738 32.196 16.66L0 114.513l34.512 20.254-4.559 8.703c-4.996 9.539-4.86 21.12.89 30.226 4.352 6.883 11.145 11.543 18.91 13.164v66.356c0 35.87 15.032 71.476 41.24 97.683l55.35 55.356v60.691c0 8.25-6.687 14.938-14.933 14.938H83.215V512h95.734C203.83 512 224 491.828 224 466.95v-86.446l55.059-30.59.617-.344 25.691-17.617c10.942-7.504 18.328-19.332 20.266-32.457a47.913 47.913 0 0 0-2.086-22.504c8.812 2.2 16.965 6.715 25.672 13.887 25.281 20.82 35.422 59.144 21.375 88.672l-20 34.668s43.332-18 58.629-36.809c17.902-22.008 27.117-49.531 25.574-77.812-1.574-28.891-14.125-55.059-35.336-73.684-17.836-15.66-35.34-23.555-50-27.371 4.281-1.434 9.187-2.36 14.781-2.29 41.59.434 84.695 22.24 94.352 67.298 4 18.668 2 46 2 46s23.906-34 23.906-77.278zM193.883 466.95c0 8.235-6.7 14.934-14.934 14.934h-5.043a44.824 44.824 0 0 0 2.555-14.934V406.91l17.422-9.676zm0 0" fill="#000000" opacity="1" data-original="#000000" class=""></path></g></svg>